<svg xmlns="http://www.w3.org/2000/svg" viewBox="0 0 32 32" stroke="black">
	<line x1="15.92" x2="28.92" y1="16" y2="16" stroke-width="2"/>
	<path d="M23.93,25v3h-16V4h16V7h2V3a1,1,0,0,0-1-1h-18a1,1,0,0,0-1,1V29a1,1,0,0,0,1,1h18a1,1,0,0,0,1-1V25Z"/>
	<line x1="28.92" x2="24.92" y1="16" y2="20" stroke-width="2"/>
	<line x1="28.92" x2="24.92" y1="16" y2="12" stroke-width="2"/>
	<line x1="24.92" x2="24.92" y1="8.09" y2="6.09" stroke-width="2"/>
	<line x1="24.92" x2="24.92" y1="26" y2="24" stroke-width="2"/>
</svg>
