<?xml version="1.0" encoding="utf-8"?>
<!-- Generator: Adobe Illustrator 26.0.3, SVG Export Plug-In . SVG Version: 6.00 Build 0)  -->
<svg version="1.1" id="Ebene_1" xmlns="http://www.w3.org/2000/svg" xmlns:xlink="http://www.w3.org/1999/xlink" x="0px" y="0px"
	 width="200px" height="30px" viewBox="0 0 200 30" style="enable-background:new 0 0 200 30;" xml:space="preserve">
<style type="text/css">
	.st0{fill:#B10045;}
</style>
<g>
	<path class="st0" d="M20.5,12.2H8.9c-0.8,0-1.4-0.3-1.9-0.9C6.5,10.7,6.2,10,6.2,9.2C6.2,8.3,6.5,7.6,7,7c0.5-0.6,1.1-0.9,1.9-0.9
		l13.1,0v0c0,0,0,0,0.1,0c0,0,0.1,0,0.1,0h3.4c0.9,0,1.4-0.5,1.4-1.4V1.9c0-0.9-0.5-1.4-1.4-1.4H8.9c-2.5,0-4.6,0.9-6.3,2.5
		C0.9,4.7,0,6.8,0,9.2s0.9,4.4,2.6,6.1c1.7,1.7,3.9,2.5,6.3,2.5h11.6c0.7,0,1.3,0.3,1.9,0.9c0.5,0.6,0.8,1.3,0.8,2.2
		c0,0.8-0.3,1.6-0.8,2.2c-0.5,0.6-1.1,0.9-1.9,0.9H2.6c-0.9,0-1.4,0.5-1.4,1.3v2.8c0,0.9,0.5,1.4,1.4,1.4h17.9
		c2.4,0,4.6-0.8,6.3-2.5c1.7-1.7,2.6-3.7,2.6-6.1c0-2.4-0.9-4.4-2.6-6.1S22.9,12.2,20.5,12.2"/>
	<path class="st0" d="M60.4,11.3c-0.5,0.6-1.1,0.9-1.9,0.9H45.1c-0.6,0-0.9-0.3-0.9-0.9V9.2c0-0.9,0.3-1.6,0.8-2.2
		c0.5-0.6,1.1-0.9,1.9-0.9h11.6c0.7,0,1.3,0.3,1.9,0.9c0.5,0.6,0.8,1.3,0.8,2.2C61.2,10,60.9,10.7,60.4,11.3 M45.1,17.8h13.4
		c2.4,0,4.6-0.8,6.3-2.5c1.7-1.7,2.6-3.7,2.6-6.1c0-2.4-0.9-4.4-2.6-6.1c-1.7-1.7-3.9-2.5-6.3-2.5H46.9c-2.5,0-4.6,0.9-6.3,2.5
		C38.8,4.7,38,6.8,38,9.2v11.7c0,2.4,0.9,4.4,2.6,6.1c1.7,1.7,3.9,2.5,6.3,2.5h16.7c0.9,0,1.4-0.5,1.4-1.4v-2.8
		c0-0.9-0.5-1.3-1.4-1.3H46.9c-0.8,0-1.4-0.3-1.9-0.9c-0.5-0.6-0.8-1.3-0.8-2.2v-2.1C44.2,18.1,44.5,17.8,45.1,17.8"/>
	<path class="st0" d="M98.9,15c0,2.5-0.8,4.6-2.5,6.3c-1.7,1.7-3.7,2.6-6,2.6h-7.1c-0.6,0-0.9-0.3-0.9-0.9V7c0-0.6,0.3-0.9,0.9-0.9
		h7.1c2.3,0,4.3,0.9,6,2.6C98,10.4,98.9,12.5,98.9,15 M90.4,0.5H77.5c-0.9,0-1.4,0.5-1.4,1.4v26.2c0,0.9,0.5,1.4,1.4,1.4h12.9
		c4.1,0,7.6-1.4,10.4-4.2c2.8-2.8,4.3-6.3,4.3-10.2c0-4-1.5-7.4-4.3-10.2C98,1.9,94.5,0.5,90.4,0.5"/>
	<path class="st0" d="M118.9,0.5h-3.4c-0.9,0-1.4,0.5-1.4,1.4v26.2c0,0.9,0.5,1.4,1.4,1.4h3.4c0.9,0,1.4-0.5,1.4-1.4V1.9
		C120.3,1,119.8,0.5,118.9,0.5"/>
	<path class="st0" d="M137.7,9.1c0-0.9,0.3-1.6,0.8-2.2c0.5-0.6,1.1-0.9,1.9-0.9H152c0.7,0,1.3,0.3,1.9,0.9c0.5,0.6,0.8,1.3,0.8,2.2
		v11.7c0,0.8-0.3,1.6-0.8,2.2c-0.5,0.6-1.1,0.9-1.9,0.9h-11.7c-0.8,0-1.4-0.3-1.9-0.9c-0.5-0.6-0.8-1.3-0.8-2.2V9.1z M152,0.5h-11.6
		c-2.4,0-4.6,0.8-6.3,2.5c-1.7,1.7-2.6,3.7-2.6,6.1v11.8c0,2.4,0.9,4.4,2.6,6.1c1.7,1.7,3.9,2.5,6.3,2.5H152c2.4,0,4.6-0.8,6.3-2.5
		c1.7-1.7,2.6-3.7,2.6-6.1V9.1c0-2.3-0.9-4.4-2.6-6.1C156.6,1.4,154.5,0.5,152,0.5"/>
	<path class="st0" d="M197.4,3c-1.7-1.7-3.8-2.5-6.3-2.5h-11.6c-2.4,0-4.6,0.8-6.3,2.5c-1.7,1.7-2.6,3.7-2.6,6.1v19
		c0,0.9,0.5,1.4,1.4,1.4h3.5c0.9,0,1.4-0.5,1.4-1.4v-19c0-0.9,0.3-1.6,0.8-2.2c0.5-0.6,1.1-0.9,1.9-0.9h11.6c0.7,0,1.3,0.3,1.9,0.9
		c0.5,0.6,0.8,1.3,0.8,2.2v19c0,0.9,0.5,1.4,1.4,1.4h3.5c0.9,0,1.4-0.5,1.4-1.4v-19C200,6.7,199.1,4.7,197.4,3"/>
</g>
</svg>
